<svg width="54" height="54" viewBox="0 0 54 54" fill="none" xmlns="http://www.w3.org/2000/svg">
<g clip-path="url(#clip0_483_36092)">
<path d="M27 54C41.9117 54 54 41.9117 54 27C54 12.0883 41.9117 0 27 0C12.0883 0 0 12.0883 0 27C0 41.9117 12.0883 54 27 54Z" fill="#F6F6F6"/>
<path d="M29.8154 28.6263C30.4849 28.1867 31.3641 28.6663 31.3641 29.4656V30.7545C31.3641 32.0234 30.375 33.3822 29.186 33.7818L25.9988 34.8409C25.4393 35.0307 24.5301 35.0307 23.9805 34.8409L20.7933 33.7818C19.5944 33.3822 18.6152 32.0234 18.6152 30.7545V29.4556C18.6152 28.6663 19.4944 28.1867 20.1539 28.6163L22.2121 29.9552C23.0014 30.4847 24.0005 30.7445 24.9996 30.7445C25.9988 30.7445 26.9979 30.4847 27.7872 29.9552L29.8154 28.6263Z" fill="#0399FC"/>
<path d="M32.9624 19.4547L26.9777 15.5281C25.8986 14.8187 24.1202 14.8187 23.0411 15.5281L17.0263 19.4547C15.098 20.7036 15.098 23.5311 17.0263 24.79L18.6249 25.8291L23.0411 28.7066C24.1202 29.416 25.8986 29.416 26.9777 28.7066L31.3638 25.8291L32.7326 24.9299V27.9872C32.7326 28.3969 33.0723 28.7366 33.482 28.7366C33.8916 28.7366 34.2313 28.3969 34.2313 27.9872V23.0715C34.631 21.7826 34.2213 20.2839 32.9624 19.4547Z" fill="#0399FC"/>
<path d="M37.1375 22.941C37.452 22.4348 38.1368 22.3144 38.6052 22.683L40.8224 24.4276C41.2735 24.7826 41.3339 25.4437 40.9544 25.8745L36.3253 31.1293C35.9745 31.5275 35.3736 31.5823 34.9565 31.2541L33.6552 30.2302C33.2547 29.9151 33.1552 29.3493 33.4242 28.9165L37.1375 22.941Z" fill="#C56BFD"/>
<path d="M26.7716 36.1144C26.3536 36.5392 26.3976 37.2331 26.866 37.6017L29.0832 39.3463C29.5344 39.7013 30.1911 39.6044 30.5206 39.1343L34.5391 33.3991C34.8436 32.9644 34.7556 32.3675 34.3385 32.0393L33.0371 31.0154C32.6367 30.7003 32.0634 30.7367 31.706 31.0999L26.7716 36.1144Z" fill="#C56BFD"/>
</g>
<defs>
<clipPath id="clip0_483_36092">
<rect width="54" height="54" fill="white"/>
</clipPath>
</defs>
</svg>
