<svg width="54" height="54" viewBox="0 0 54 54" fill="none" xmlns="http://www.w3.org/2000/svg">
<g clip-path="url(#clip0_483_36079)">
<path d="M27 54C41.9117 54 54 41.9117 54 27C54 12.0883 41.9117 0 27 0C12.0883 0 0 12.0883 0 27C0 41.9117 12.0883 54 27 54Z" fill="#F6F6F6"/>
<path d="M28 17C25.38 17 23.25 19.13 23.25 21.75C23.25 24.32 25.26 26.4 27.88 26.49C27.96 26.48 28.04 26.48 28.1 26.49C28.12 26.49 28.13 26.49 28.15 26.49C28.16 26.49 28.16 26.49 28.17 26.49C30.73 26.4 32.74 24.32 32.75 21.75C32.75 19.13 30.62 17 28 17Z" fill="#0399FC"/>
<path d="M33.0809 29.1499C30.2909 27.2899 25.7409 27.2899 22.9309 29.1499C21.6609 29.9999 20.9609 31.1499 20.9609 32.3799C20.9609 33.6099 21.6609 34.7499 22.9209 35.5899C24.3209 36.5299 26.1609 36.9999 28.0009 36.9999C29.8409 36.9999 31.6809 36.5299 33.0809 35.5899C34.3409 34.7399 35.0409 33.5999 35.0409 32.3599C35.0309 31.1299 34.3409 29.9899 33.0809 29.1499Z" fill="#0399FC"/>
<path d="M38.9913 22.3401C39.1513 24.2801 37.7713 25.9801 35.8613 26.2101C35.8513 26.2101 35.8513 26.2101 35.8413 26.2101H35.8113C35.7513 26.2101 35.6913 26.2101 35.6413 26.2301C34.6713 26.2801 33.7813 25.9701 33.1113 25.4001C34.1413 24.4801 34.7313 23.1001 34.6113 21.6001C34.5413 20.7901 34.2613 20.0501 33.8413 19.4201C34.2213 19.2301 34.6613 19.1101 35.1113 19.0701C37.0713 18.9001 38.8213 20.3601 38.9913 22.3401Z" fill="#C56BFD"/>
<path d="M40.9902 31.5899C40.9102 32.5599 40.2902 33.3999 39.2502 33.9699C38.2502 34.5199 36.9902 34.7799 35.7402 34.7499C36.4602 34.0999 36.8802 33.2899 36.9602 32.4299C37.0602 31.1899 36.4702 29.9999 35.2902 29.0499C34.6202 28.5199 33.8402 28.0999 32.9902 27.7899C35.2002 27.1499 37.9802 27.5799 39.6902 28.9599C40.6102 29.6999 41.0802 30.6299 40.9902 31.5899Z" fill="#C56BFD"/>
<path d="M17.0107 22.2835C16.8507 24.2235 18.2307 25.9235 20.1407 26.1535C20.1507 26.1535 20.1507 26.1535 20.1607 26.1535H20.1907C20.2507 26.1535 20.3107 26.1535 20.3607 26.1735C21.3307 26.2235 22.2207 25.9135 22.8907 25.3435C21.8607 24.4235 21.2707 23.0435 21.3907 21.5435C21.4607 20.7335 21.7407 19.9935 22.1607 19.3635C21.7807 19.1735 21.3407 19.0535 20.8907 19.0135C18.9307 18.8435 17.1807 20.3035 17.0107 22.2835Z" fill="#C56BFD"/>
<path d="M15.0109 31.5333C15.0909 32.5033 15.7109 33.3433 16.7509 33.9133C17.7509 34.4633 19.0109 34.7233 20.2609 34.6933C19.5409 34.0433 19.1209 33.2333 19.0409 32.3733C18.9409 31.1333 19.5309 29.9433 20.7109 28.9933C21.3809 28.4633 22.1609 28.0433 23.0109 27.7333C20.8009 27.0933 18.0209 27.5233 16.3109 28.9033C15.3909 29.6433 14.9209 30.5733 15.0109 31.5333Z" fill="#C56BFD"/>
</g>
<defs>
<clipPath id="clip0_483_36079">
<rect width="54" height="54" fill="white"/>
</clipPath>
</defs>
</svg>
