<svg width="40" height="40" viewBox="0 0 40 40" fill="none" xmlns="http://www.w3.org/2000/svg">
<circle cx="20" cy="20" r="20" fill="#0399FC"/>
<g clip-path="url(#clip0_1042_297)">
<path d="M32 20.0003C32 13.3728 26.6274 8.00027 20 8.00027C13.3726 8.00027 8 13.3728 8 20.0003C8 25.9898 12.3882 30.9543 18.125 31.8545V23.469H15.0781V20.0003H18.125V17.3565C18.125 14.349 19.9165 12.6878 22.6576 12.6878C23.9705 12.6878 25.3438 12.9221 25.3438 12.9221V15.8753H23.8306C22.3399 15.8753 21.875 16.8003 21.875 17.7493V20.0003H25.2031L24.6711 23.469H21.875V31.8545C27.6118 30.9543 32 25.9898 32 20.0003Z" fill="white"/>
<path d="M24.6711 23.4688L25.2031 20H21.875V17.749C21.875 16.8 22.3399 15.875 23.8306 15.875H25.3438V12.9219C25.3438 12.9219 23.9705 12.6875 22.6576 12.6875C19.9165 12.6875 18.125 14.3487 18.125 17.3562V20H15.0781V23.4688H18.125V31.8542C18.7359 31.9501 19.3621 32 20 32C20.6379 32 21.2641 31.9501 21.875 31.8542V23.4688H24.6711Z" fill="#0399FC"/>
</g>
<defs>
<clipPath id="clip0_1042_297">
<rect width="24" height="24" fill="white" transform="translate(8 8)"/>
</clipPath>
</defs>
</svg>
