<svg width="40" height="40" viewBox="0 0 40 40" fill="none" xmlns="http://www.w3.org/2000/svg">
<circle cx="20" cy="20" r="20" fill="#0399FC"/>
<g clip-path="url(#clip0_1042_305)">
<path d="M20.0001 8C13.3735 8 8 13.5014 8 20.2881C8 25.7173 11.4384 30.3234 16.2064 31.9482C16.8061 32.062 17.0263 31.6817 17.0263 31.3571C17.0263 31.0641 17.0152 30.0961 17.01 29.0693C13.6716 29.8127 12.9671 27.6195 12.9671 27.6195C12.4212 26.1992 11.6347 25.8215 11.6347 25.8215C10.546 25.0588 11.7168 25.0745 11.7168 25.0745C12.9218 25.1612 13.5563 26.3408 13.5563 26.3408C14.6266 28.2194 16.3636 27.6763 17.0484 27.3623C17.1561 26.5681 17.4671 26.026 17.8102 25.7191C15.1449 25.4084 12.343 24.3548 12.343 19.6463C12.343 18.3047 12.8117 17.2085 13.5794 16.348C13.4548 16.0385 13.044 14.7887 13.6956 13.0961C13.6956 13.0961 14.7033 12.7658 16.9965 14.3557C17.9537 14.0834 18.9803 13.9469 20.0001 13.9422C21.0199 13.9469 22.0473 14.0834 23.0063 14.3557C25.2967 12.7658 26.303 13.0961 26.303 13.0961C26.9562 14.7887 26.5452 16.0385 26.4206 16.348C27.1901 17.2085 27.6557 18.3047 27.6557 19.6463C27.6557 24.366 24.8484 25.4052 22.1762 25.7094C22.6067 26.0907 22.9902 26.8385 22.9902 27.985C22.9902 29.6291 22.9763 30.9524 22.9763 31.3571C22.9763 31.6841 23.1923 32.0673 23.8006 31.9466C28.566 30.32 32 25.7155 32 20.2881C32 13.5014 26.6273 8 20.0001 8ZM12.4944 25.5047C12.468 25.5657 12.3742 25.584 12.2888 25.5421C12.2017 25.502 12.1528 25.4188 12.1811 25.3575C12.2069 25.2947 12.3009 25.2772 12.3877 25.3193C12.475 25.3594 12.5246 25.4434 12.4944 25.5047ZM13.0847 26.044C13.0275 26.0983 12.9156 26.0731 12.8397 25.9872C12.7612 25.9016 12.7465 25.787 12.8045 25.7318C12.8635 25.6775 12.972 25.7029 13.0507 25.7886C13.1292 25.8753 13.1445 25.989 13.0847 26.044ZM13.4896 26.734C13.4161 26.7863 13.2959 26.7373 13.2216 26.628C13.1481 26.5188 13.1481 26.3877 13.2232 26.3352C13.2977 26.2827 13.4161 26.3299 13.4914 26.4384C13.5648 26.5495 13.5648 26.6805 13.4896 26.734ZM14.1745 27.5332C14.1087 27.6075 13.9686 27.5876 13.8661 27.4862C13.7612 27.3871 13.732 27.2465 13.7979 27.1722C13.8645 27.0978 14.0054 27.1187 14.1087 27.2193C14.2129 27.3181 14.2446 27.4598 14.1745 27.5332ZM15.0596 27.803C15.0306 27.8993 14.8957 27.943 14.7597 27.9021C14.624 27.86 14.5352 27.7473 14.5626 27.65C14.5908 27.5531 14.7264 27.5076 14.8633 27.5513C14.9988 27.5932 15.0878 27.7052 15.0596 27.803ZM16.0669 27.9175C16.0703 28.0188 15.955 28.1028 15.8123 28.1047C15.6689 28.1079 15.5528 28.0259 15.5512 27.9262C15.5512 27.8239 15.6639 27.7406 15.8074 27.7382C15.9501 27.7353 16.0669 27.8167 16.0669 27.9175ZM17.0565 27.8786C17.0735 27.9775 16.9744 28.0791 16.8327 28.1061C16.6934 28.1322 16.5644 28.0711 16.5467 27.973C16.5295 27.8717 16.6304 27.7702 16.7695 27.7439C16.9114 27.7187 17.0384 27.7781 17.0565 27.8786Z" fill="white"/>
</g>
<defs>
<clipPath id="clip0_1042_305">
<rect width="24" height="24" fill="white" transform="translate(8 8)"/>
</clipPath>
</defs>
</svg>
