<svg width="40" height="40" viewBox="0 0 40 40" fill="none" xmlns="http://www.w3.org/2000/svg">
<circle cx="20" cy="20" r="20" fill="#0399FC"/>
<g clip-path="url(#clip0_1042_323)">
<path d="M17.643 20.8874C18.1362 21.285 18.8038 21.5082 19.4998 21.5082C20.1958 21.5082 20.8634 21.285 21.3565 20.8874L29.8082 14.0449C29.6136 13.6511 29.2779 13.3134 28.8442 13.0753C28.4105 12.8372 27.8988 12.7096 27.3748 12.709H11.6248C11.1008 12.7096 10.589 12.8372 10.1554 13.0753C9.7217 13.3134 9.38598 13.6511 9.19141 14.0449L17.643 20.8874Z" fill="white"/>
<path d="M22.594 21.889C21.7727 22.5522 20.66 22.9246 19.5 22.9246C18.34 22.9246 17.2273 22.5522 16.406 21.889L9 15.8965V28.2923H30V15.8965L22.594 21.889Z" fill="white"/>
</g>
<defs>
<clipPath id="clip0_1042_323">
<rect width="21" height="17" fill="white" transform="translate(9 12)"/>
</clipPath>
</defs>
</svg>
