<svg width="40" height="40" viewBox="0 0 40 40" fill="none" xmlns="http://www.w3.org/2000/svg">
<circle cx="20" cy="20" r="20" fill="#0399FC"/>
<rect x="8" y="8" width="24" height="24" rx="12" fill="white"/>
<path d="M17.305 13.4856C16.6028 13.5187 16.1232 13.6308 15.704 13.7955C15.2701 13.9646 14.9024 14.1916 14.5365 14.5588C14.1706 14.926 13.9452 15.294 13.7773 15.7286C13.6148 16.1487 13.5048 16.6287 13.4737 17.3313C13.4427 18.034 13.4358 18.2598 13.4393 20.0521C13.4427 21.8444 13.4506 22.0691 13.4847 22.7732C13.5182 23.4753 13.6299 23.9547 13.7946 24.3741C13.964 24.808 14.1906 25.1756 14.558 25.5416C14.9253 25.9076 15.2931 26.1324 15.7287 26.3006C16.1485 26.4628 16.6285 26.5735 17.331 26.6042C18.0336 26.635 18.2597 26.6421 20.0514 26.6387C21.8432 26.6352 22.0688 26.6273 22.7728 26.5939C23.4767 26.5605 23.9536 26.4481 24.3731 26.2841C24.807 26.1144 25.1749 25.8881 25.5407 25.5206C25.9065 25.1531 26.1316 24.7849 26.2994 24.35C26.462 23.9303 26.5725 23.4502 26.603 22.7482C26.6338 22.0437 26.641 21.8188 26.6376 20.0268C26.6342 18.2347 26.6261 18.0101 26.5927 17.3062C26.5593 16.6024 26.4475 16.1244 26.2829 15.7048C26.1133 15.2709 25.8869 14.9036 25.5197 14.5373C25.1525 14.171 24.7839 13.9459 24.3492 13.7785C23.9292 13.616 23.4494 13.5053 22.7469 13.4749C22.0444 13.4446 21.8183 13.4368 20.0258 13.4402C18.2334 13.4436 18.009 13.4513 17.305 13.4856ZM17.3821 25.4169C16.7386 25.3889 16.3892 25.282 16.1564 25.1925C15.848 25.0737 15.6284 24.9301 15.3963 24.7002C15.1643 24.4704 15.0217 24.25 14.9013 23.9423C14.8109 23.7094 14.702 23.3604 14.6719 22.7169C14.6392 22.0214 14.6323 21.8126 14.6285 20.0505C14.6246 18.2884 14.6314 18.0799 14.6619 17.3841C14.6893 16.7411 14.7969 16.3913 14.8863 16.1586C15.0051 15.8499 15.1482 15.6306 15.3785 15.3987C15.6088 15.1668 15.8286 15.0239 16.1366 14.9036C16.3692 14.8127 16.7182 14.7048 17.3614 14.6741C18.0574 14.6411 18.266 14.6345 20.0278 14.6307C21.7896 14.6269 21.9987 14.6335 22.695 14.6641C23.338 14.6921 23.6879 14.7986 23.9204 14.8885C24.2289 15.0073 24.4484 15.15 24.6803 15.3807C24.9122 15.6115 25.0552 15.8305 25.1756 16.1391C25.2665 16.371 25.3745 16.7199 25.4049 17.3635C25.438 18.0596 25.4455 18.2683 25.4487 20.0299C25.4518 21.7916 25.4456 22.0008 25.4152 22.6963C25.387 23.3398 25.2804 23.6894 25.1908 23.9225C25.072 24.2307 24.9287 24.4505 24.6983 24.6823C24.4678 24.9141 24.2483 25.0569 23.9402 25.1773C23.7079 25.268 23.3585 25.3762 22.7157 25.4068C22.0197 25.4396 21.8111 25.4464 20.0487 25.4503C18.2862 25.4541 18.0783 25.447 17.3823 25.4169M22.7626 16.512C22.7629 16.6686 22.8096 16.8217 22.8968 16.9518C22.9841 17.0819 23.108 17.1832 23.2528 17.2429C23.3976 17.3026 23.5569 17.318 23.7105 17.2872C23.8641 17.2563 24.0051 17.1806 24.1157 17.0697C24.2262 16.9587 24.3014 16.8174 24.3317 16.6637C24.362 16.51 24.346 16.3508 24.2857 16.2062C24.2255 16.0616 24.1238 15.9381 23.9933 15.8513C23.8629 15.7645 23.7097 15.7184 23.553 15.7187C23.343 15.7191 23.1418 15.8029 22.9935 15.9517C22.8453 16.1004 22.7623 16.302 22.7626 16.512ZM16.6497 20.046C16.6534 21.9178 18.1735 23.4317 20.0448 23.4282C21.9162 23.4246 23.4312 21.9046 23.4276 20.0328C23.4241 18.1611 21.9035 16.6468 20.0319 16.6505C18.1603 16.6542 16.6461 18.1745 16.6497 20.046ZM17.8385 20.0437C17.8376 19.6085 17.9658 19.1829 18.2068 18.8206C18.4478 18.4584 18.7909 18.1757 19.1926 18.0084C19.5942 17.8411 20.0365 17.7966 20.4634 17.8807C20.8904 17.9647 21.2828 18.1735 21.5911 18.4806C21.8994 18.7876 22.1097 19.1792 22.1954 19.6058C22.2812 20.0324 22.2385 20.4749 22.0728 20.8772C21.907 21.2795 21.6257 21.6237 21.2644 21.8662C20.9031 22.1086 20.478 22.2385 20.0429 22.2394C19.7539 22.24 19.4677 22.1836 19.2006 22.0736C18.9334 21.9636 18.6905 21.802 18.4858 21.5981C18.2811 21.3942 18.1186 21.152 18.0075 20.8853C17.8964 20.6186 17.839 20.3326 17.8385 20.0437Z" fill="#0399FC"/>
</svg>
