<svg width="40" height="40" viewBox="0 0 40 40" fill="none" xmlns="http://www.w3.org/2000/svg">
<circle cx="20" cy="20" r="20" fill="#0399FC"/>
<circle cx="20" cy="20" r="12" fill="white"/>
<path d="M16.0518 16.7764V26H13.1705V16.7764H16.0518ZM13 14.398C13 13.9889 13.1478 13.6536 13.4433 13.3921C13.7388 13.1307 14.1224 13 14.5941 13C15.0658 13 15.4494 13.1307 15.7449 13.3921C16.0404 13.6536 16.1882 13.9889 16.1882 14.398C16.1882 14.8072 16.0404 15.1425 15.7449 15.4039C15.4494 15.6654 15.0658 15.7961 14.5941 15.7961C14.1224 15.7961 13.7388 15.6654 13.4433 15.4039C13.1478 15.1425 13 14.8072 13 14.398Z" fill="#0399FC"/>
<path d="M20.8211 18.7456V26H17.9484V16.7764H20.6421L20.8211 18.7456ZM20.4802 21.0728L19.8067 21.0898C19.8067 20.3851 19.892 19.7572 20.0625 19.2059C20.2329 18.649 20.4745 18.1773 20.787 17.7908C21.0996 17.4044 21.4719 17.1117 21.9038 16.9128C22.3414 16.7082 22.8273 16.6059 23.3615 16.6059C23.7877 16.6059 24.177 16.6684 24.5293 16.7934C24.8874 16.9185 25.1943 17.1202 25.45 17.3987C25.7114 17.6772 25.9103 18.0466 26.0467 18.5069C26.1888 18.9615 26.2598 19.5242 26.2598 20.1948V26H23.37V20.1862C23.37 19.8168 23.3188 19.5355 23.2166 19.3423C23.1143 19.1434 22.9665 19.007 22.7733 18.9331C22.58 18.8592 22.3442 18.8223 22.0657 18.8223C21.7702 18.8223 21.5202 18.8791 21.3156 18.9928C21.111 19.1064 20.9462 19.2656 20.8211 19.4702C20.7018 19.6691 20.6137 19.9049 20.5569 20.1777C20.5057 20.4505 20.4802 20.7489 20.4802 21.0728Z" fill="#0399FC"/>
</svg>
