<svg width="67" height="70" viewBox="0 0 67 70" fill="none" xmlns="http://www.w3.org/2000/svg">
<path d="M47.0252 56.1354C58.0573 48.666 60.9456 33.6676 53.4762 22.6354C46.0069 11.6032 31.0084 8.71497 19.9762 16.1843C8.94404 23.6536 6.0558 38.6521 13.5252 49.6843C20.9945 60.7165 35.993 63.6047 47.0252 56.1354Z" fill="#0399FC"/>
<path opacity="0.3" d="M47.0252 56.1354C58.0573 48.666 60.9456 33.6676 53.4762 22.6354C46.0069 11.6032 31.0084 8.71497 19.9762 16.1843C8.94404 23.6536 6.0558 38.6521 13.5252 49.6843C20.9945 60.7165 35.993 63.6047 47.0252 56.1354Z" fill="black"/>
<path d="M47.0252 53.4753C58.0573 46.0059 60.9456 31.0074 53.4762 19.9753C46.0069 8.94307 31.0084 6.05482 19.9762 13.5242C8.94404 20.9935 6.0558 35.992 13.5252 47.0242C20.9945 58.0564 35.993 60.9446 47.0252 53.4753Z" fill="#0399FC"/>
<path d="M33.5008 49.6594C42.4252 49.6594 49.6599 42.4247 49.6599 33.5003C49.6599 24.576 42.4252 17.3413 33.5008 17.3413C24.5764 17.3413 17.3418 24.576 17.3418 33.5003C17.3418 42.4247 24.5764 49.6594 33.5008 49.6594Z" fill="white"/>
<path d="M39.0932 39.0878C42.1809 36 42.1809 30.9938 39.0932 27.9061C36.0055 24.8184 30.9993 24.8184 27.9115 27.9061C24.8238 30.9938 24.8238 36 27.9115 39.0878C30.9993 42.1755 36.0055 42.1755 39.0932 39.0878Z" fill="#0399FC"/>
<path d="M52.8932 13.0709L52.2363 7.92464L57.4805 2.31738L57.8551 7.87277L52.8932 13.0709Z" fill="#455A64"/>
<path d="M64.1362 8.97957L58.8228 8.54736L53.498 13.6705L58.8228 14.241L64.1362 8.97957Z" fill="#455A64"/>
<path opacity="0.3" d="M34.5566 33.3853L52.9977 19.3009C52.3053 18.3019 51.5345 17.3596 50.6926 16.4829L34.5566 32.129V33.3853Z" fill="black"/>
<path d="M58.3329 6.49576L49.8558 15.0708L36.4341 28.6712L33.3452 31.8004C32.3655 32.7916 33.9215 34.3188 34.8724 33.3276L43.338 24.7524L56.7712 11.1521L59.8601 8.02291C60.834 7.0317 59.2838 5.50455 58.3272 6.49576H58.3329Z" fill="#263238"/>
</svg>
