<svg width="54" height="54" viewBox="0 0 54 54" fill="none" xmlns="http://www.w3.org/2000/svg">
<g clip-path="url(#clip0_483_36103)">
<path d="M27 54C41.9117 54 54 41.9117 54 27C54 12.0883 41.9117 0 27 0C12.0883 0 0 12.0883 0 27C0 41.9117 12.0883 54 27 54Z" fill="#F6F6F6"/>
<path d="M30.168 38.7498C30.1005 38.7498 30.0218 38.7385 29.9543 38.716C27.693 38.0748 25.3193 38.0748 23.058 38.716C22.6418 38.8285 22.203 38.5923 22.0905 38.176C21.9668 37.7598 22.2143 37.321 22.6305 37.2085C25.173 36.4885 27.8505 36.4885 30.393 37.2085C30.8093 37.3323 31.0568 37.7598 30.933 38.176C30.8205 38.5248 30.5055 38.7498 30.168 38.7498Z" fill="#C56BFD"/>
<path d="M29.271 41C29.2199 41 29.1602 40.9878 29.109 40.9635C27.3952 40.2703 25.5962 40.2703 23.8825 40.9635C23.567 41.0851 23.2345 40.8297 23.1492 40.3797C23.0554 39.9297 23.243 39.4554 23.5585 39.3338C25.4854 38.5554 27.5146 38.5554 29.4415 39.3338C29.757 39.4676 29.9446 39.9297 29.8508 40.3797C29.7655 40.7568 29.5268 41 29.271 41Z" fill="#C56BFD"/>
<path d="M34.6098 21.1552C33.4398 18.7927 31.1786 17.0489 28.5573 16.4752C25.8123 15.8677 22.9998 16.5202 20.8511 18.2527C18.6911 19.9739 17.4648 22.5502 17.4648 25.3064C17.4648 28.2202 19.2086 31.2689 21.8411 33.0352V33.9689C21.8298 34.2839 21.8186 34.7677 22.2011 35.1614C22.5948 35.5664 23.1798 35.6114 23.6411 35.6114H29.4123C30.0198 35.6114 30.4811 35.4427 30.7961 35.1277C31.2236 34.6889 31.2123 34.1264 31.2011 33.8227V33.0352C34.6886 30.6839 36.8823 25.7227 34.6098 21.1552ZM28.4336 27.0727L27.2298 29.1652C27.0723 29.4352 26.7911 29.5927 26.4986 29.5927C26.3523 29.5927 26.2061 29.5589 26.0823 29.4802C25.6773 29.2439 25.5423 28.7264 25.7673 28.3327L26.7236 26.6677H25.7786C25.2161 26.6677 24.7548 26.4202 24.5073 26.0039C24.2598 25.5764 24.2823 25.0589 24.5636 24.5639L25.7673 22.4714C26.0036 22.0664 26.5211 21.9314 26.9148 22.1564C27.3198 22.3927 27.4548 22.9102 27.2298 23.3039L26.2736 24.9689H27.2186C27.7811 24.9689 28.2423 25.2164 28.4898 25.6327C28.7373 26.0602 28.7148 26.5889 28.4336 27.0727Z" fill="#0399FC"/>
</g>
<defs>
<clipPath id="clip0_483_36103">
<rect width="54" height="54" fill="white"/>
</clipPath>
</defs>
</svg>
