<svg width="40" height="40" viewBox="0 0 40 40" fill="none" xmlns="http://www.w3.org/2000/svg">
<circle cx="20" cy="20" r="20" fill="#0399FC"/>
<circle cx="20" cy="21" r="12" fill="white"/>
<path d="M17.71 27.192C23.368 27.192 26.464 22.5 26.464 18.438C26.464 18.306 26.464 18.174 26.458 18.042C27.058 17.61 27.58 17.064 27.994 16.446C27.442 16.692 26.848 16.854 26.224 16.932C26.86 16.554 27.346 15.948 27.58 15.228C26.986 15.582 26.326 15.834 25.624 15.972C25.06 15.372 24.262 15 23.38 15C21.682 15 20.302 16.38 20.302 18.078C20.302 18.318 20.332 18.552 20.38 18.78C17.824 18.654 15.556 17.424 14.038 15.564C13.774 16.02 13.624 16.548 13.624 17.112C13.624 18.18 14.17 19.122 14.992 19.674C14.488 19.656 14.014 19.518 13.6 19.29C13.6 19.302 13.6 19.314 13.6 19.332C13.6 20.82 14.662 22.068 16.066 22.35C15.808 22.422 15.538 22.458 15.256 22.458C15.058 22.458 14.866 22.44 14.68 22.404C15.07 23.628 16.21 24.516 17.554 24.54C16.498 25.368 15.172 25.86 13.732 25.86C13.486 25.86 13.24 25.848 13 25.818C14.356 26.682 15.976 27.192 17.71 27.192Z" fill="#0399FC"/>
</svg>
