<svg width="53" height="60" viewBox="0 0 53 60" fill="none" xmlns="http://www.w3.org/2000/svg">
<g clip-path="url(#clip0_483_36159)">
<path d="M25.9824 4.70013C25.8811 3.92109 25.8252 3.13683 25.8148 2.3513C25.7952 1.56661 25.8224 0.781456 25.8961 0C25.9978 0.778966 26.053 1.5633 26.0613 2.34883C26.0805 3.13347 26.0541 3.91855 25.9824 4.70013Z" fill="#A6A6A6"/>
<path d="M15.2548 7.69229C14.7771 7.06905 14.3368 6.41805 13.9362 5.74273C13.528 5.07307 13.1593 4.38014 12.832 3.66748C13.3095 4.2886 13.749 4.93799 14.1481 5.61211C14.5582 6.28277 14.9278 6.97741 15.2548 7.69229Z" fill="#A6A6A6"/>
<path d="M7.4612 15.6484C6.73588 15.3477 6.02894 15.0045 5.34404 14.6206C4.65413 14.2454 3.98746 13.8289 3.34766 13.3735C4.07278 13.6755 4.77969 14.0195 5.46481 14.4037C6.15416 14.779 6.82078 15.1946 7.4612 15.6484Z" fill="#A6A6A6"/>
<path d="M4.69767 26.4362C3.91945 26.5374 3.13601 26.5934 2.3513 26.6038C1.56661 26.6235 0.781448 26.5963 0 26.5224C1.55868 26.3311 3.13301 26.3022 4.69767 26.4362Z" fill="#A6A6A6"/>
<path d="M7.68157 37.1597C7.05789 37.636 6.40694 38.0755 5.73202 38.4758C5.0624 38.8863 4.36856 39.2558 3.6543 39.5825C4.27738 39.1054 4.92839 38.6659 5.60386 38.2664C6.27348 37.8559 6.96732 37.4863 7.68157 37.1597Z" fill="#A6A6A6"/>
<path d="M44.9453 36.7803C46.3942 37.3902 47.774 38.1528 49.0613 39.0552C47.6152 38.4411 46.2366 37.6787 44.9478 36.7803H44.9453Z" fill="#A6A6A6"/>
<path d="M47.7188 25.9924C48.4969 25.8908 49.2805 25.8356 50.0652 25.8272C50.8498 25.8055 51.6351 25.8318 52.4165 25.9061C51.6383 26.0078 50.8548 26.0629 50.0701 26.0712C49.2855 26.093 48.5002 26.0666 47.7188 25.9924Z" fill="#A6A6A6"/>
<path d="M44.7266 15.2636C45.349 14.7868 45.9992 14.3473 46.6737 13.9475C47.3433 13.537 48.0371 13.1675 48.7514 12.8408C48.1287 13.3185 47.4776 13.758 46.8018 14.157C46.1327 14.5669 45.4398 14.9364 44.7266 15.2636Z" fill="#A6A6A6"/>
<path d="M36.7676 7.47036C37.0704 6.74962 37.4144 6.04685 37.7978 5.36553C38.1725 4.67585 38.5882 4.0092 39.0425 3.36914C38.7418 4.09365 38.3986 4.79978 38.0147 5.48383C37.6382 6.16985 37.2218 6.83316 36.7676 7.47036Z" fill="#A6A6A6"/>
<path d="M4.73242 11.8894L6.79041 11.5073L7.25131 9.33838L7.71221 11.5073L9.7702 11.8894L7.7196 12.3922L7.25131 14.4403L6.78302 12.3922L4.73242 11.8894Z" fill="#C56BFD"/>
<path d="M37.9062 47.9723L39.9642 47.5928L40.4251 45.4214L40.8837 47.5928L42.944 47.9748L40.8935 48.4751L40.4251 50.5257L39.9568 48.4751L37.9062 47.9723Z" fill="#C56BFD"/>
<path d="M10.6348 43.4202L11.7858 43.2082L12.0421 41.9956L12.3009 43.2082L13.4519 43.4202L12.3059 43.7012L12.0421 44.8472L11.7809 43.7012L10.6348 43.4202Z" fill="#C56BFD"/>
<path d="M16.8984 6.28496L18.0469 6.07053L18.3057 4.85791L18.5621 6.07053L19.7131 6.28496L18.567 6.56346L18.3057 7.70954L18.042 6.56346L16.8984 6.28496Z" fill="#C56BFD"/>
<path d="M12.0428 49.0913C12.1264 49.0841 12.2043 49.0458 12.261 48.9839C12.3178 48.9221 12.3492 48.8412 12.3492 48.7573C12.3492 48.6734 12.3178 48.5925 12.261 48.5307C12.2043 48.4688 12.1264 48.4305 12.0428 48.4233C11.9591 48.4305 11.8813 48.4688 11.8245 48.5307C11.7678 48.5925 11.7363 48.6734 11.7363 48.7573C11.7363 48.8412 11.7678 48.9221 11.8245 48.9839C11.8813 49.0458 11.9591 49.0841 12.0428 49.0913Z" fill="#C56BFD"/>
<path d="M44.5095 44.8472C44.5607 44.8323 44.6057 44.8012 44.6376 44.7585C44.6696 44.7158 44.6869 44.664 44.6869 44.6106C44.6869 44.5573 44.6696 44.5054 44.6376 44.4628C44.6057 44.4201 44.5607 44.389 44.5095 44.374C44.4583 44.389 44.4133 44.4201 44.3813 44.4628C44.3493 44.5054 44.332 44.5573 44.332 44.6106C44.332 44.664 44.3493 44.7158 44.3813 44.7585C44.4133 44.8012 44.4583 44.8323 44.5095 44.8472Z" fill="#C56BFD"/>
<path d="M10.7925 14.0366C10.8427 14.021 10.8866 13.9898 10.9178 13.9474C10.949 13.9051 10.9659 13.8538 10.9659 13.8013C10.9659 13.7487 10.949 13.6974 10.9178 13.6551C10.8866 13.6127 10.8427 13.5815 10.7925 13.5659C10.7423 13.5815 10.6983 13.6127 10.6671 13.6551C10.636 13.6974 10.6191 13.7487 10.6191 13.8013C10.6191 13.8538 10.636 13.9051 10.6671 13.9474C10.6983 13.9898 10.7423 14.021 10.7925 14.0366Z" fill="#C56BFD"/>
<path d="M49.2908 17.6246C49.342 17.6097 49.387 17.5786 49.4189 17.5359C49.4509 17.4932 49.4682 17.4413 49.4682 17.388C49.4682 17.3347 49.4509 17.2828 49.4189 17.2401C49.387 17.1975 49.342 17.1663 49.2908 17.1514C49.2396 17.1663 49.1946 17.1975 49.1626 17.2401C49.1306 17.2828 49.1133 17.3347 49.1133 17.388C49.1133 17.4413 49.1306 17.4932 49.1626 17.5359C49.1946 17.5786 49.2396 17.6097 49.2908 17.6246Z" fill="#C56BFD"/>
<path d="M46.2687 19.7938C47.0919 19.7938 47.0919 18.5146 46.2687 18.5146C45.4455 18.5146 45.443 19.7938 46.2687 19.7938Z" fill="#C56BFD"/>
<g opacity="0.5">
<path d="M44.4624 27.3015C43.5554 38.639 34.1108 42.0575 34.1108 42.0575C33.4157 43.7828 32.5112 48.1674 32.5112 48.1674H19.897C19.897 48.1674 18.9925 43.7828 18.2974 42.0575C18.2974 42.0575 8.85029 38.639 7.94576 27.3015C7.31727 19.4146 12.9269 7.77394 26.1351 7.77148H26.2706C39.4788 7.7838 45.0909 19.4318 44.4624 27.3015Z" fill="#C56BFD"/>
</g>
<g opacity="0.7">
<path d="M42.9005 27.3678C42.0748 37.7392 33.4336 40.857 33.4336 40.857C32.7978 42.4344 31.9721 48.1697 31.9721 48.1697H20.4374C20.4374 48.1697 19.6093 42.4344 18.9734 40.857C18.9734 40.857 10.3323 37.7318 9.50411 27.3604C8.92984 20.1537 14.0638 9.50881 26.1407 9.50635H26.2664C38.3457 9.50881 43.4796 20.1537 42.9005 27.3678Z" fill="#C56BFD"/>
</g>
<path d="M19.7971 29.3188L19.0703 29.4546L22.7788 49.3092L23.5056 49.1735L19.7971 29.3188Z" fill="white"/>
<path d="M32.6068 29.3198L28.9121 49.177L29.639 49.3123L33.3337 29.455L32.6068 29.3198Z" fill="white"/>
<path d="M26.2052 35.9573C25.0764 35.9573 24.0412 34.9024 23.3141 33.5542C23.1898 33.7261 23.0299 33.8692 22.8453 33.9738C22.6607 34.0784 22.4558 34.1421 22.2445 34.1605C20.4033 34.1605 19.659 30.3354 19.627 30.1727L19.8734 30.1283C19.8734 30.1653 20.6128 33.9141 22.2469 33.9141C22.5723 33.9141 22.9001 33.6873 23.1983 33.3226C22.6321 32.2253 22.3141 31.0171 22.2666 29.7833C22.2666 28.7259 22.6585 28.1196 23.3462 28.1196C24.1472 28.1196 24.6056 28.7654 24.6056 29.8893C24.566 31.1217 24.1789 32.3178 23.4891 33.3398C24.1768 34.6609 25.1577 35.7133 26.2003 35.7133C26.989 35.7133 27.7776 35.0971 28.4185 33.988C28.4751 33.887 28.5318 33.7834 28.5861 33.6775C27.8467 32.8838 27.4351 31.5825 27.4351 30.3428C27.4351 28.9798 27.9428 28.1246 28.7586 28.1246C28.9155 28.1243 29.0694 28.1678 29.2031 28.25C29.3367 28.3323 29.4448 28.4502 29.5152 28.5904C30.0673 29.5442 29.7617 31.8364 28.8818 33.6306C29.2249 33.9766 29.6911 34.1724 30.1782 34.1753C31.5831 34.1753 32.6429 30.4044 32.6577 30.3674L32.9042 30.434C32.8573 30.5966 31.7778 34.4218 30.193 34.4218C29.6683 34.4169 29.1651 34.2124 28.7857 33.85L28.6452 34.0965C28.1523 34.9418 27.334 35.9573 26.2052 35.9573ZM28.7709 28.3661C27.9748 28.3661 27.6938 29.4234 27.6938 30.3378C27.6938 31.3237 28.0241 32.6398 28.7118 33.4409C29.5128 31.7427 29.8135 29.5787 29.3156 28.7161C29.2679 28.6117 29.1912 28.5232 29.0946 28.4611C28.9981 28.3991 28.8857 28.3661 28.7709 28.3661ZM23.3486 28.3661C22.624 28.3661 22.5156 29.2534 22.5156 29.7833C22.5635 30.9355 22.855 32.0644 23.3708 33.0958C23.9854 32.1376 24.3263 31.0297 24.3567 29.8917C24.3567 29.3199 24.2236 28.3661 23.3437 28.3661H23.3486Z" fill="white"/>
<path d="M34.1032 48.1919H18.3047V56.8873H34.1032V48.1919Z" fill="#455A64"/>
<path d="M32.3014 56.8774C31.3722 58.5263 29.5902 60.0002 26.1939 60.0002C22.7976 60.0002 21.0181 58.5214 20.084 56.8774H32.3014Z" fill="#455A64"/>
<path d="M32.3014 56.8774C32.0252 57.3702 31.68 57.8209 31.2761 58.2158L20.4019 57.3802C20.2876 57.2215 20.1815 57.0569 20.084 56.8873L32.3014 56.8774Z" fill="#37474F"/>
<path d="M34.5646 49.8509L17.8418 51.3962V50.6371L34.5646 49.0918V49.8509Z" fill="#37474F"/>
<path d="M34.5646 52.1453L17.8418 53.6907V52.934L34.5646 51.3862V52.1453Z" fill="#37474F"/>
<path d="M34.5646 54.4398L17.8418 55.9851V55.2285L34.5646 53.6807V54.4398Z" fill="#37474F"/>
<g opacity="0.5">
<path d="M11.9233 24.6616C12.5025 24.7577 13.2542 21.768 16.4681 18.3076C17.8952 16.7721 23.3125 14.8571 22.9231 13.0751C22.5337 11.2932 17.7004 13.1244 15.2678 15.9416C11.3515 20.4741 11.3909 24.5704 11.9233 24.6616Z" fill="white"/>
<path d="M40.435 25.2827C41.4997 25.2827 41.5022 23.6265 40.435 23.6265C39.3677 23.6265 39.3579 25.2827 40.435 25.2827Z" fill="white"/>
<path d="M35.2126 37.7343C35.7943 38.1804 38.6213 35.5703 39.8955 32.4574C40.9553 29.8744 41.1278 26.6087 40.4254 26.4189C39.723 26.2292 39.2522 30.7099 38.397 32.3613C37.3174 34.4488 34.589 37.261 35.2126 37.7343Z" fill="white"/>
</g>
</g>
<defs>
<clipPath id="clip0_483_36159">
<rect width="53" height="60" fill="white"/>
</clipPath>
</defs>
</svg>
